<?xml version="1.0" encoding="UTF-8" standalone="no"?>
<svg
   xmlns:dc="http://purl.org/dc/elements/1.1/"
   xmlns:cc="http://creativecommons.org/ns#"
   xmlns:rdf="http://www.w3.org/1999/02/22-rdf-syntax-ns#"
   xmlns:svg="http://www.w3.org/2000/svg"
   xmlns="http://www.w3.org/2000/svg"
   xmlns:sodipodi="http://sodipodi.sourceforge.net/DTD/sodipodi-0.dtd"
   xmlns:inkscape="http://www.inkscape.org/namespaces/inkscape"
   width="483.67215"
   height="102.70576"
   viewBox="0 0 127.97159 27.174231"
   version="1.1"
   id="svg8"
   sodipodi:docname="logo-text.svg"
   inkscape:version="1.0.1 (3bc2e813f5, 2020-09-07, custom)">
  <defs
     id="defs2">
    <rect
       x="11.132251"
       y="27.785191"
       width="68.250671"
       height="12.743026"
       id="rect18" />
    <rect
       x="1.6105827"
       y="10.518208"
       width="200.60371"
       height="50.001717"
       id="rect12" />
    <filter
       style="color-interpolation-filters:sRGB"
       inkscape:label="Drop Shadow"
       id="filter232">
      <feFlood
         flood-opacity="1"
         flood-color="rgb(0,0,0)"
         result="flood"
         id="feFlood222" />
      <feComposite
         in="flood"
         in2="SourceGraphic"
         operator="in"
         result="composite1"
         id="feComposite224" />
      <feGaussianBlur
         in="composite1"
         stdDeviation="0.5"
         result="blur"
         id="feGaussianBlur226" />
      <feOffset
         dx="0.2"
         dy="0.2"
         result="offset"
         id="feOffset228" />
      <feComposite
         in="SourceGraphic"
         in2="offset"
         operator="over"
         result="composite2"
         id="feComposite230" />
    </filter>
    <filter
       style="color-interpolation-filters:sRGB"
       inkscape:label="Drop Shadow"
       id="filter349">
      <feFlood
         flood-opacity="1"
         flood-color="rgb(0,0,0)"
         result="flood"
         id="feFlood339" />
      <feComposite
         in="flood"
         in2="SourceGraphic"
         operator="in"
         result="composite1"
         id="feComposite341" />
      <feGaussianBlur
         in="composite1"
         stdDeviation="0.5"
         result="blur"
         id="feGaussianBlur343" />
      <feOffset
         dx="0.2"
         dy="0.2"
         result="offset"
         id="feOffset345" />
      <feComposite
         in="SourceGraphic"
         in2="offset"
         operator="over"
         result="composite2"
         id="feComposite347" />
    </filter>
    <filter
       style="color-interpolation-filters:sRGB"
       inkscape:label="Drop Shadow"
       id="filter361">
      <feFlood
         flood-opacity="1"
         flood-color="rgb(0,0,0)"
         result="flood"
         id="feFlood351" />
      <feComposite
         in="flood"
         in2="SourceGraphic"
         operator="in"
         result="composite1"
         id="feComposite353" />
      <feGaussianBlur
         in="composite1"
         stdDeviation="0.3"
         result="blur"
         id="feGaussianBlur355" />
      <feOffset
         dx="0.2"
         dy="0.2"
         result="offset"
         id="feOffset357" />
      <feComposite
         in="SourceGraphic"
         in2="offset"
         operator="over"
         result="composite2"
         id="feComposite359" />
    </filter>
  </defs>
  <sodipodi:namedview
     id="base"
     pagecolor="#ffffff"
     bordercolor="#666666"
     borderopacity="1.0"
     inkscape:pageopacity="0.0"
     inkscape:pageshadow="2"
     inkscape:zoom="2"
     inkscape:cx="155.9192"
     inkscape:cy="79.13481"
     inkscape:document-units="px"
     inkscape:current-layer="layer1"
     inkscape:document-rotation="0"
     showgrid="false"
     fit-margin-top="10"
     fit-margin-left="10"
     fit-margin-right="10"
     fit-margin-bottom="10"
     units="px"
     inkscape:window-width="1920"
     inkscape:window-height="1027"
     inkscape:window-x="0"
     inkscape:window-y="236"
     inkscape:window-maximized="1" />
  <metadata
     id="metadata5">
    <rdf:RDF>
      <cc:Work
         rdf:about="">
        <dc:format>image/svg+xml</dc:format>
        <dc:type
           rdf:resource="http://purl.org/dc/dcmitype/StillImage" />
        <dc:title></dc:title>
      </cc:Work>
    </rdf:RDF>
  </metadata>
  <g
     inkscape:label="Layer 1"
     inkscape:groupmode="layer"
     id="layer1"
     transform="translate(-20.672779,-5.0779214)">
    <text
       xml:space="preserve"
       id="text16"
       style="font-size:3.175px;line-height:1.25;font-family:'Noto Serif Display';-inkscape-font-specification:'Noto Serif Display';writing-mode:lr-tb;white-space:pre;shape-inside:url(#rect18);" />
    <g
       id="g233"
       transform="translate(-3.5712856,0.70236346)">
      <g
         id="g182"
         transform="translate(11.948778,-0.21938224)">
        <text
           xml:space="preserve"
           style="font-size:3.52778px;line-height:1.25;font-family:'Noto Serif Display';-inkscape-font-specification:'Noto Serif Display';fill:#4d4d4d;stroke-width:0.264583"
           x="59.808811"
           y="28.27667"
           id="text28"><tspan
             sodipodi:role="line"
             id="tspan26"
             x="59.808811"
             y="28.27667"
             style="font-style:italic;font-variant:normal;font-weight:normal;font-stretch:normal;font-size:3.52778px;font-family:'Noto Serif Display';-inkscape-font-specification:'Noto Serif Display Italic';fill:#4d4d4d;stroke-width:0.264583">BY JAN-HENDRIK EWERS</tspan></text>
        <text
           xml:space="preserve"
           style="font-size:3.52778px;line-height:1.25;font-family:'Noto Serif Display';-inkscape-font-specification:'Noto Serif Display';stroke-width:0.264583"
           x="42.762608"
           y="23.075562"
           id="text333"><tspan
             sodipodi:role="line"
             id="tspan331"
             x="42.762608"
             y="23.075562"
             style="font-size:3.52778px;stroke-width:0.264583">DATA·DRIVEN·WHISKY·RECOMMENDATIONS</tspan></text>
        <text
           xml:space="preserve"
           style="font-size:12.7px;line-height:1.25;font-family:'Noto Serif Display';-inkscape-font-specification:'Noto Serif Display';stroke-width:0.264583;filter:url(#filter361)"
           x="33.279259"
           y="17.367758"
           id="text337"><tspan
             sodipodi:role="line"
             id="tspan335"
             x="33.279259"
             y="17.367758"
             style="font-style:normal;font-variant:normal;font-weight:bold;font-stretch:normal;font-size:12.7px;font-family:'Noto Serif Display';-inkscape-font-specification:'Noto Serif Display Bold';stroke-width:0.264583">WHISKY GURU</tspan></text>
      </g>
      <g
         id="g178"
         transform="matrix(2.5932774,0,0,2.0870509,-261.30017,-122.68268)">
        <path
           style="fill:#ff9955;stroke:none;stroke-width:0.0593027px;stroke-linecap:butt;stroke-linejoin:miter;stroke-opacity:1"
           d="m 111.67587,68.639321 0.27738,-0.20244 4.19562,0.10642 0.38591,0.304723 -1.00818,1.362085 -1.72667,0.285312 -1.154,-0.362785 -1.06638,-1.135355 z"
           id="path28" />
        <path
           style="fill:#000000;stroke-width:0.0593027"
           d="m 112.69033,72.595744 c -0.31183,-0.04932 -0.55713,-0.152004 -0.63239,-0.264716 -0.11506,-0.172316 0.0118,-0.631131 0.37135,-1.343473 0.097,-0.192073 0.17629,-0.398019 0.17629,-0.457657 0,-0.05964 -0.23351,-0.347363 -0.5189,-0.63939 -0.57293,-0.586243 -0.81739,-1.005654 -0.90777,-1.55746 -0.11226,-0.685359 -0.0514,-1.128548 0.38043,-2.768489 0.23789,-0.903499 0.38951,-1.893639 0.41929,-2.738193 0.0211,-0.597744 0.0496,-0.672468 0.14783,-0.679309 1.3662,0.101597 2.52926,0.110391 3.92464,0.109091 l 0.0437,0.832519 c 0.0608,1.157459 0.21963,1.867693 0.55024,3.043993 0.24011,0.854324 0.25711,0.963414 0.25849,1.658634 10e-4,0.741349 6.5e-4,0.745861 -0.22043,1.193372 -0.15027,0.304178 -0.37524,0.614303 -0.69681,0.960549 -0.26119,0.281235 -0.47489,0.562081 -0.47489,0.624102 0,0.06202 0.0769,0.268948 0.17101,0.45984 0.32642,0.662474 0.43063,0.955127 0.41147,1.155467 -0.0159,0.16624 -0.0589,0.219284 -0.25632,0.316127 -0.21088,0.103452 -0.382,0.117822 -1.54187,0.129461 -0.71757,0.0072 -1.43999,-0.0083 -1.60538,-0.03447 z m 3.56732,-3.873302 c -0.88452,-0.215635 -2.95217,-0.221323 -4.39336,-0.104129 -0.47822,0.377506 0.80273,1.226561 1.02254,1.465918 0.1141,0.124244 0.63699,0.271049 1.24488,0.252443 0.39112,-0.01197 0.81742,-0.09241 1.19267,-0.291391 0.41629,-0.220739 1.08337,-0.867792 0.94778,-1.27884 z m -4.3044,-0.285561 c 0.17939,-0.02498 1.08672,-0.0468 2.01629,-0.04848 1.55069,-0.0028 2.30847,0.03826 2.55629,0.138548 0.0743,0.03009 0.11296,-0.02384 0.17622,-0.246214 0.14848,-0.521918 0.0602,-1.519534 -0.18783,-2.123134 -0.0402,-0.09785 -0.0691,-0.196997 -0.0642,-0.220328 0.005,-0.02333 -0.0168,-0.109997 -0.0482,-0.192591 -0.11855,-0.311795 -0.35892,-1.656318 -0.42143,-2.35727 -0.0357,-0.400772 -0.0753,-0.784626 -0.0879,-0.853009 -0.0224,-0.121639 -0.0592,-0.125195 -1.69938,-0.16409 -0.92205,-0.02187 -1.75613,-0.01747 -1.8535,0.0098 -0.22632,0.0549 -0.22496,0.577569 -0.25087,0.863246 -0.077,0.849254 -0.28456,1.968239 -0.49647,2.677067 -0.21848,0.730835 -0.28711,1.115038 -0.28924,1.619393 -0.003,0.629279 0.0933,1.043239 0.22818,0.984376 0.0527,-0.02302 0.24268,-0.06229 0.42207,-0.08727 z"
           id="path26"
           sodipodi:nodetypes="csssssssccssscssssssccccsssccsssssssssccsssc" />
        <ellipse
           style="fill:#ffffff;stroke:none;stroke-width:0.224137;stop-color:#000000"
           id="path30"
           cx="112.79511"
           cy="68.842155"
           rx="0.71157384"
           ry="0.10564753" />
      </g>
    </g>
  </g>
</svg>
